<svg xmlns="http://www.w3.org/2000/svg" viewBox="0 0 3760.13 790.71"><defs><style>.cls-1{fill:#f2f2f2;}</style></defs><title>logo_white</title><g id="Слой_6" data-name="Слой 6"><path class="cls-1" d="M1106.89,987.72" transform="translate(-1039.19 -871.21)"/><path class="cls-1" d="M1106.89,987.94a.23.23,0,0,0,0-.45.23.23,0,0,0,0,.45Z" transform="translate(-1039.19 -871.21)"/><path class="cls-1" d="M1103.32,991.14c26,43.28,35.69,94,52.45,141.64,8.52,24.19,17.5,49,29,72,11,22,23.27,43.14,35.57,64.37,12.65,21.82,26.84,42.5,43.54,61.4,26.09,29.52,54.61,56.83,79.79,87.13,2.71,3.27,26.9,30.8,45.13,65.52,30,57.16,59.32,133.81,64.26,153.8-3.49,3.28-9.48,4-13,7.32-4.42,4.16-6.33,10.82-10.75,15-4-53.37-15.24-105.78-40.54-152.94-14-26.12-31.93-59.18-51.6-81.35-56.89,21.51-127.1,14.33-175.21-22.88s-79-93.25-95.68-151.75c-4.93-17.33-9.75-92-10.51-111.38-.68-17.17-1.72-207.22-13.93-265.1l50,46.31c16.66,15.44,33.38,30.93,52,43.9,16.75,11.65,34.88,21.14,52.71,31.07,39.17,21.81,77.38,46.06,109.87,77s59.2,68.9,71.66,112c20.61,71.21-1.78,153.54-28,222.89-12.78-13.23-32.72-33.17-39.9-50.1-4.9-11.55,5.9-92.63,6.7-121.68s-6.44-62.78-23-86.68c21.38,57.92,10,129.65-1.61,190.29-15.07-9.45-29.22-27.3-34-46.78-2.42-10,.31-50,.72-87.14.23-21.19-1.52-42.71-2.32-54.16-1.4-20-11.5-57-20.67-74.86,4,21.54,10,50,11.33,76.23,2.21,42.25-2.52,83.75-9.54,118.3-22.21-30.61-28.44-76.72-32.73-114.29-1.94-17-2.54-36.28-4.8-55.68-2.73-23.38-9.83-47-14-67.24.2,13.28,3.85,46.76,5.2,80,1.45,35.73,6,76.55,7,86.21-8-9.79-21.83-41.66-31.64-69.14-14.34-40.18-29.83-84.39-36.25-97.15A239.85,239.85,0,0,0,1103.32,991.14Z" transform="translate(-1039.19 -871.21)"/><path class="cls-1" d="M1101.2,992.38c27.33,46,37.45,99.79,55.23,149.73,9,25.4,18.94,50.33,31.43,74.25,13.11,25.11,27,50.2,42.48,74,29.84,45.9,71.3,82,106.65,123.42a461.9,461.9,0,0,1,29.76,38.18c14.11,20.53,25.34,42.65,35.91,65.16q16.89,36,31.29,73.12c6,15.52,12.49,31.29,16.55,47.48l.68-2.56c-4.09,3.39-9.68,4-13.5,7.87-4.2,4.23-6.07,10.15-10.22,14.43l4.51,1.87c-2.64-34.46-8.14-68.83-18.74-101.79-10.25-31.9-26.07-61.48-43.13-90.21-9.19-15.48-19.11-30.65-31-44.2a2.63,2.63,0,0,0-2.63-.69c-60.15,22.44-131.27,13.31-180.64-28.73-25-21.28-45-47.88-60.26-76.83a334.38,334.38,0,0,1-19.88-45.77c-3.76-10.73-7.29-21.49-9-32.74-3.48-23.1-5-46.58-6.53-69.87-.86-12.89-1.66-25.77-1.9-38.69-.69-38.62-1.34-77.24-2.69-115.84-1.52-43.44-2.57-87.57-9.29-130.59-.53-3.4-1.13-6.79-1.83-10.15l-4.5,2.62q27,25,54,50.06c16.84,15.57,34,31,53.12,43.69s39.86,23.1,59.83,34.55a640.34,640.34,0,0,1,56.73,36.17c35.43,25.61,67.58,56.62,90,94.46,22.54,38.08,31.82,80.49,29.5,124.55-2.66,50.59-17.78,99.88-35.54,147l4.36-1.15c-7.68-7.94-15.42-15.84-22.57-24.27-6.19-7.29-14.06-16.11-16.94-25.47-1.27-4.11-.93-8.92-.89-13.16.08-7.43.55-14.86,1.08-22.28,1.25-17.52,3-35,4.56-52.5,1.42-15.92,3.06-31.92,2-47.91-1.73-25.33-8.6-51.17-23-72.34-1.53-2.26-5.76-.93-4.7,2,21.92,60.32,10.1,127.73-1.59,188.93l3.74-1.52c-15.6-10-30-27.9-33.07-46.63-1-6.17-.67-12.68-.6-18.91.11-9.38.43-18.75.73-28.12.71-22.36,1.4-44.7.25-67.06-.83-16.24-1.81-32.37-5.26-48.3-3.91-18-9.07-36.46-17.4-53-1.34-2.67-5-.7-4.55,1.92,6,31.88,11.73,63.4,11.81,96a487.56,487.56,0,0,1-10,97.26l4.48-.59c-17.11-23.94-23.91-53.72-28.39-82.33-2.37-15.14-4.22-30.41-5.42-45.69-1.36-17.28-2.15-34.66-5-51.78-3.17-19.15-8.56-37.82-12.53-56.8-.56-2.66-4.77-2-4.71.64.25,12.26,1.57,24.53,2.51,36.75,1.36,17.6,2.22,35.21,3.19,52.84,1.41,25.61,4,51.11,6.66,76.61l3.82-1.58c-8.79-11-14.2-25.54-19.6-38.37-7.43-17.64-13.72-35.7-20.24-53.68-6.07-16.74-12-33.54-18.46-50.13-4.61-11.87-9.42-23.36-15.94-34.33a231.83,231.83,0,0,0-21.8-30.95c-.95-1.12-2.55.5-1.61,1.61,15.92,18.9,27.18,40.94,35.71,64,12.73,34.36,23.6,69.52,37.62,103.39,5.82,14,11.6,29.64,21.15,41.66,1.17,1.47,4,.28,3.82-1.58-2.55-25.51-5.09-51-6.42-76.61-.9-17.34-1.73-34.65-3.05-52-1-12.51-2.31-25.07-2.56-37.62l-4.71.64c3.5,16.79,8.13,33.33,11.33,50.19,3.46,18.26,4.41,36.81,5.83,55.3,2.27,29.7,5.87,60.15,14.36,88.78,4.57,15.39,10.84,30.4,20.21,43.52,1.11,1.56,4,1.66,4.48-.59a494.3,494.3,0,0,0,10.19-98.56c-.06-33-5.89-65-11.95-97.29l-4.55,1.92c15.66,31.08,20.37,66.24,22,100.52,1.11,22.92.26,45.82-.47,68.74-.29,9.1-.6,18.21-.66,27.31,0,5.92-.24,12.08.85,17.93,3.72,20,18.58,38.59,35.34,49.38a2.57,2.57,0,0,0,3.74-1.52c11.88-62.07,23.85-130.47,1.64-191.65l-4.7,2c13.58,20,20.31,44.22,22.16,68.14,1.26,16.33-.36,32.66-1.81,48.92-1.58,17.69-3.36,35.37-4.63,53.08-.53,7.41-1,14.84-1.09,22.28-.05,4.55-.27,9.54.92,14,2.42,9,9.59,17.49,15.36,24.62,8,9.84,16.84,18.88,25.63,28a2.64,2.64,0,0,0,4.36-1.15c30.63-81.25,54.8-174.8,15.33-257.35-18.61-38.92-47.91-71.9-81.18-99-36-29.28-76.42-50.81-116.44-73.82-23.5-13.51-44.43-29.74-64.43-48-20.87-19-41.44-38.36-62.15-57.56a2.71,2.71,0,0,0-4.5,2.62c3.7,17.74,5.11,36,6.49,54,1.85,24.17,3,48.39,4,72.61,1.6,41.29,2.38,82.61,3.08,123.92a974.06,974.06,0,0,0,7.72,107.46c3.32,25.79,12.87,50.56,23.92,74,14.06,29.78,32.72,57.64,56.38,80.66,22.76,22.16,49.66,38.34,80.53,46.31a197.14,197.14,0,0,0,93.92.89,188.23,188.23,0,0,0,22.64-6.89l-2.63-.69c20.72,23.59,35.71,51.92,50.47,79.44,16,29.75,26.67,61.81,33.23,94.89a492.64,492.64,0,0,1,7.71,58c.17,2.18,2.82,3.61,4.51,1.87,4.15-4.28,6-10.31,10.22-14.44,3.76-3.68,9.43-4.5,13.5-7.87a2.61,2.61,0,0,0,.68-2.56c-3.47-13.8-8.81-27.24-13.88-40.51q-12.09-31.63-26-62.56c-10.17-22.76-20.67-45.68-33.6-67a379.13,379.13,0,0,0-33.93-47.11c-15-17.86-30.78-34.94-46.82-51.85-18.88-19.9-38.2-39.6-54.45-61.76-16.47-22.47-30.13-46.91-43.68-71.21a562.31,562.31,0,0,1-36.33-77.82c-10.42-28-19-56.45-27.83-85-8.71-28.15-18.54-56.13-33.66-81.56C1103.82,987.2,1099.59,989.66,1101.2,992.38Z" transform="translate(-1039.19 -871.21)"/></g><g id="Слой_3" data-name="Слой 3"><path class="cls-1" d="M2032.58,1404.2q0,42.38-35.77,70.43-34.13,26.41-79.24,26.41h-213q-45.28,0-78.55-26.4-35.46-28-35.45-70.4v-289a24.48,24.48,0,0,1,24.84-24.51q23.16.42,23.16,24.19V1200h279q45.11,0,79.24,26.41,35.76,28.06,35.77,70.44Zm-48-107.76q0-18.14-17.58-32.44-19.24-15.94-48.89-15.95H1639.58v155.61q0,18.14,17.58,32.44,19.22,16,48.89,15.95h212.05q29.67,0,48.89-15.95,17.58-14.29,17.58-32.44Z" transform="translate(-1039.19 -871.21)"/><path class="cls-1" d="M2032.58,1404.2a102.8,102.8,0,0,1-1.27,15.52,87.72,87.72,0,0,1-4,15,84.56,84.56,0,0,1-16.12,26.49,113.1,113.1,0,0,1-23.72,20.09,128.47,128.47,0,0,1-13.61,7.59,127.17,127.17,0,0,1-14.47,5.8,132.59,132.59,0,0,1-15.09,3.92,147.32,147.32,0,0,1-15.45,2.09c-5.19.36-10.39.47-15.58.43h-15.59l-62.35,0-124.7.08c-2.6,0-5.19,0-7.8,0l-3.9-.07-3.9-.22a130.6,130.6,0,0,1-15.49-1.88c-1.28-.22-2.56-.45-3.83-.75s-2.55-.54-3.81-.85c-2.52-.66-5-1.3-7.52-2.12a117.92,117.92,0,0,1-28.22-13.19,118.08,118.08,0,0,1-12.59-9.22c-2-1.62-3.92-3.43-5.85-5.18l-2.76-2.77c-.94-.91-1.8-1.88-2.66-2.86-1.78-1.91-3.37-4-5-6s-3.08-4.21-4.41-6.46-2.62-4.51-3.84-6.81l-1.66-3.55c-.56-1.18-1-2.42-1.48-3.62a81.38,81.38,0,0,1-4.2-15,94.65,94.65,0,0,1-1.43-15.56l0-15.59,0-62.35-.08-124.7v-85.73c0-1.29.06-2.62.13-3.94a26.93,26.93,0,0,1,.73-3.9,25.11,25.11,0,0,1,8.48-13.1,24.7,24.7,0,0,1,14.62-5.43,33.85,33.85,0,0,1,7.85.64,29.06,29.06,0,0,1,3.82,1l1.83.77c.6.27,1.17.63,1.75.94a17.87,17.87,0,0,1,5.72,5.46,22.16,22.16,0,0,1,3.06,7.28,37.83,37.83,0,0,1,.87,7.82c0,2.61,0,5.2,0,7.8v15.59l0,62.35-.36-.36,276.7.18a142.39,142.39,0,0,1,34.34,3.68,122.54,122.54,0,0,1,32.09,12.7,125.66,125.66,0,0,1,14.42,9.55,118.6,118.6,0,0,1,12.87,11.56,86.7,86.7,0,0,1,18.37,29.08,90.89,90.89,0,0,1,5.28,34l0,34.59Zm0,0,0-69.18,0-34.59a90.73,90.73,0,0,0-5.31-33.93,86.5,86.5,0,0,0-18.37-29A118.35,118.35,0,0,0,1996,1226a125.4,125.4,0,0,0-14.4-9.52,122.24,122.24,0,0,0-32-12.63,142,142,0,0,0-34.27-3.63l-276.7.18h-.36V1200l0-62.35v-15.59c-.07-5.19.29-10.43-.89-15.43a21.32,21.32,0,0,0-2.95-7,17,17,0,0,0-5.45-5.2,21.28,21.28,0,0,0-7.14-2.63,33,33,0,0,0-7.65-.62,23.81,23.81,0,0,0-14.09,5.25,24.2,24.2,0,0,0-8.16,12.63,26,26,0,0,0-.7,3.75c-.06,1.27-.15,2.54-.12,3.85v85.73l-.08,124.7,0,62.35v15.58a93.94,93.94,0,0,0,1.4,15.45,80.71,80.71,0,0,0,4.14,14.93c.49,1.2.91,2.42,1.46,3.6l1.64,3.52c1.21,2.28,2.39,4.59,3.81,6.76s2.87,4.31,4.37,6.42,3.19,4.08,5,6c.85,1,1.71,1.94,2.64,2.85l2.74,2.76c1.92,1.74,3.78,3.54,5.81,5.16a117.51,117.51,0,0,0,12.52,9.2,117.35,117.35,0,0,0,28.07,13.16c2.46.82,5,1.46,7.48,2.12,1.26.31,2.53.57,3.79.86s2.54.54,3.81.75a130.09,130.09,0,0,0,15.43,1.89l3.88.22,3.89.08c2.59.07,5.19,0,7.79,0l124.7.08,62.35,0h15.59c5.2,0,10.39-.06,15.57-.41a147.17,147.17,0,0,0,15.43-2.06,132.46,132.46,0,0,0,15.07-3.9,127,127,0,0,0,14.46-5.77,128.34,128.34,0,0,0,13.61-7.57,113,113,0,0,0,23.73-20,84.5,84.5,0,0,0,16.14-26.45,87.7,87.7,0,0,0,4.06-15A102.8,102.8,0,0,0,2032.58,1404.2Z" transform="translate(-1039.19 -871.21)"/><path class="cls-1" d="M1984.58,1296.43a36.06,36.06,0,0,0-1.86-11.33,39.11,39.11,0,0,0-5.3-10.2,54.3,54.3,0,0,0-7.72-8.54,70.71,70.71,0,0,0-9.14-7,68.37,68.37,0,0,0-21.16-8.87,94.54,94.54,0,0,0-22.88-2.35l-92.31.09-184.62.18.36-.36.08,82,0,41,0,20.51v10.26a49.43,49.43,0,0,0,.16,5.08c.06.84.18,1.68.32,2.51s.32,1.65.5,2.48a40,40,0,0,0,9.73,17.53,64.25,64.25,0,0,0,7.46,6.91,60.72,60.72,0,0,0,8.4,5.74,66.63,66.63,0,0,0,9.19,4.36,78.28,78.28,0,0,0,9.75,3,90.52,90.52,0,0,0,10.06,1.66c3.39.35,6.79.51,10.2.54l82,.08,82,.08,41,0c3.42,0,6.84,0,10.25,0a95.15,95.15,0,0,0,10.2-.82,76.16,76.16,0,0,0,19.69-5.33,66.49,66.49,0,0,0,17.25-10.86,49.2,49.2,0,0,0,12.68-15.86,35.24,35.24,0,0,0,3-9.73,63.57,63.57,0,0,0,.45-10.21l0-20.51Zm0,0,.08,82,0,20.51a63.76,63.76,0,0,1-.44,10.25,35.47,35.47,0,0,1-3,9.8,49.46,49.46,0,0,1-12.72,16,66.8,66.8,0,0,1-17.3,10.95,76.5,76.5,0,0,1-19.77,5.39,95.46,95.46,0,0,1-10.23.84c-3.43.09-6.84,0-10.26.06l-41,0-82,.08-82,.08c-3.43,0-6.86-.18-10.28-.52a91.32,91.32,0,0,1-10.16-1.66,79.1,79.1,0,0,1-9.87-3,67.51,67.51,0,0,1-9.32-4.4,61.6,61.6,0,0,1-8.53-5.8,65.14,65.14,0,0,1-7.58-7,40.94,40.94,0,0,1-10-17.93c-.18-.85-.41-1.69-.52-2.55s-.27-1.71-.33-2.58a50.41,50.41,0,0,1-.18-5.17v-10.26l0-20.51,0-41,.08-82v-.36h.36l184.62.18,92.31.09a94.69,94.69,0,0,1,22.91,2.4,68.49,68.49,0,0,1,21.18,8.93,70.79,70.79,0,0,1,9.14,7,54.36,54.36,0,0,1,7.71,8.56,39.14,39.14,0,0,1,5.28,10.22A36.08,36.08,0,0,1,1984.58,1296.43Z" transform="translate(-1039.19 -871.21)"/><path class="cls-1" d="M2507.58,1404.2q0,42.38-35.73,70.43-34.09,26.41-79.16,26.41h-212.2q-45.64,0-79.16-26.41-35.74-28.06-35.73-70.43v-107.3q0-42.37,35.73-70.44,33.53-26.41,79.16-26.41h212.2q45.07,0,79.16,26.41,35.73,28.06,35.73,70.44Zm-48-107.76q0-18.14-17.58-32.44-19.24-15.94-48.89-15.95H2181.05q-29.13,0-47.79,14.85t-18.68,33.54v107.22q0,18.14,17.58,32.44,19.22,16,48.89,15.95h212.05q29.67,0,48.89-15.95,17.58-14.29,17.58-32.44Z" transform="translate(-1039.19 -871.21)"/><path class="cls-1" d="M2507.58,1404.2a91,91,0,0,1-2.21,20.27,80.77,80.77,0,0,1-7,19.13c-6.26,12.13-15.58,22.49-26.26,30.91A124.41,124.41,0,0,1,2436.4,1494a131.62,131.62,0,0,1-40.1,7.06l-163.4.19-40.85,0c-6.8,0-13.62.14-20.44-.27a136.62,136.62,0,0,1-20.27-2.67,120.29,120.29,0,0,1-37.92-14.94c-11.62-7.13-22.31-16-30.69-26.82a84.47,84.47,0,0,1-10.5-17.57,81.4,81.4,0,0,1-5.83-19.62c-.23-1.69-.49-3.39-.7-5.08l-.41-5.11-.14-5.13V1399l0-20.42-.06-81.7a91.15,91.15,0,0,1,2.25-20.37,81.25,81.25,0,0,1,7.08-19.23c6.31-12.19,15.69-22.58,26.41-31a121,121,0,0,1,35.77-19.62,132.67,132.67,0,0,1,40.21-6.93l163.41.06,40.85,0c6.8,0,13.62-.12,20.43.3a135,135,0,0,1,20.25,2.74,122.39,122.39,0,0,1,37.85,15,110.74,110.74,0,0,1,30.63,26.75,84.28,84.28,0,0,1,10.44,17.53,81.13,81.13,0,0,1,5.78,19.56c.23,1.69.48,3.37.69,5.06l.4,5.09.13,5.11v5.11l0,20.42Zm0,0-.06-81.7,0-20.42V1297l-.14-5.1-.41-5.08c-.21-1.69-.46-3.37-.69-5.05a80.93,80.93,0,0,0-5.8-19.5,84,84,0,0,0-10.44-17.46,110.46,110.46,0,0,0-30.6-26.63,122,122,0,0,0-37.76-14.9,134.63,134.63,0,0,0-20.19-2.7c-6.78-.41-13.6-.24-20.41-.27l-40.85,0-163.39.19a131.89,131.89,0,0,0-40,7,120.16,120.16,0,0,0-35.49,19.54c-10.64,8.39-19.9,18.69-26.12,30.75a80.3,80.3,0,0,0-7,19,90.77,90.77,0,0,0-2.2,20.15l-.06,81.7,0,20.42v5.11l.13,5.08.4,5.07c.2,1.68.46,3.36.68,5a80.6,80.6,0,0,0,5.74,19.44,83.7,83.7,0,0,0,10.38,17.42c8.29,10.75,18.9,19.59,30.45,26.69a119.63,119.63,0,0,0,37.7,14.91,136,136,0,0,0,20.18,2.69c6.78.41,13.59.26,20.4.3l40.85,0,163.39.06a131.4,131.4,0,0,0,40-7,124.25,124.25,0,0,0,35.68-19.46c10.68-8.4,20-18.73,26.28-30.84a80.72,80.72,0,0,0,7-19.11A90.93,90.93,0,0,0,2507.58,1404.2Z" transform="translate(-1039.19 -871.21)"/><path class="cls-1" d="M2459.58,1296.43a36.11,36.11,0,0,0-3.39-15.15,45.77,45.77,0,0,0-9.09-12.63,64,64,0,0,0-5.84-5.2c-1-.81-2-1.62-3.12-2.35s-2.16-1.46-3.25-2.17a67.16,67.16,0,0,0-14.12-6.62c-9.9-3.35-20.43-4.36-30.84-4.17l-31.3,0-125.19.12-31.3,0-15.65,0a149.74,149.74,0,0,0-15.6.51,73.82,73.82,0,0,0-29.58,9,66,66,0,0,0-12.43,9.31,59.77,59.77,0,0,0-5.26,5.71,46,46,0,0,0-4.28,6.46,36,36,0,0,0-4.29,14.75c-.12,2.57-.05,5.2-.07,7.8v7.82l0,31.3.06,62.6a35.72,35.72,0,0,0,3.29,15,45.17,45.17,0,0,0,9,12.53,63.86,63.86,0,0,0,5.79,5.18c1,.81,2,1.62,3.09,2.35s2.14,1.46,3.22,2.17a66.41,66.41,0,0,0,14,6.62c9.84,3.36,20.32,4.39,30.71,4.23l31.3,0,125.19.13,31.3,0,15.65,0a145.72,145.72,0,0,0,15.61-.49,80,80,0,0,0,15.3-3,66.66,66.66,0,0,0,20.85-10.4c2-1.6,4.1-3.21,6-5a48.93,48.93,0,0,0,9.69-12.15,36.19,36.19,0,0,0,4.34-14.85c.13-2.59.06-5.21.08-7.82v-7.82l0-31.3Zm0,0,.06,62.6,0,31.3v7.82c0,2.61.06,5.21-.07,7.83a36.42,36.42,0,0,1-4.34,15,49.2,49.2,0,0,1-9.72,12.24c-1.89,1.81-3.95,3.43-6,5a67,67,0,0,1-20.93,10.49,80.32,80.32,0,0,1-15.36,3,146.07,146.07,0,0,1-15.65.52l-15.65,0-31.3,0-125.19.13-31.3,0c-10.42.18-21-.83-31-4.21a67.31,67.31,0,0,1-14.22-6.68c-1.1-.71-2.22-1.41-3.27-2.19s-2.11-1.56-3.14-2.38a64.75,64.75,0,0,1-5.88-5.24,46.13,46.13,0,0,1-9.18-12.78,36.56,36.56,0,0,1-3.41-15.36l.06-62.6,0-31.3v-7.82c0-2.61,0-5.2.09-7.85a36.74,36.74,0,0,1,4.41-15.06,46.74,46.74,0,0,1,4.36-6.56,60.48,60.48,0,0,1,5.34-5.78,66.64,66.64,0,0,1,12.58-9.38,74.47,74.47,0,0,1,29.86-9,150.32,150.32,0,0,1,15.66-.48l15.65,0,31.3,0,125.19.12,31.3,0c10.42-.16,21,.87,30.88,4.24a67.26,67.26,0,0,1,14.13,6.66c1.09.71,2.2,1.4,3.25,2.18s2.1,1.55,3.12,2.36a64.05,64.05,0,0,1,5.83,5.21,45.82,45.82,0,0,1,9.08,12.66A36.13,36.13,0,0,1,2459.58,1296.43Z" transform="translate(-1039.19 -871.21)"/><path class="cls-1" d="M2543.25,1200.78v-86.21a24.48,24.48,0,0,1,24.84-24.51q23.16.41,23.16,24v84.54h199.11a24.48,24.48,0,0,1,24.52,24.85q-.42,23.16-24,23.15H2591.25v156q0,17.46,18,32.73,18.54,15.28,48,15.27h132a24.48,24.48,0,0,1,24.52,24.85q-.42,23.16-24,23.15H2657.25q-45.28,0-78.55-26.73-35.46-27.82-35.45-69.27V1200.78Z" transform="translate(-1039.19 -871.21)"/><path class="cls-1" d="M2543.25,1200.78l0-61.92v-23.22c0-.64,0-1.29,0-1.94s0-1.29.13-1.93l.29-1.92c.11-.64.31-1.25.46-1.88a24.72,24.72,0,0,1,3.2-7,26.05,26.05,0,0,1,5.24-5.68,24.08,24.08,0,0,1,6.75-3.77,26.8,26.8,0,0,1,3.73-1.06,26.49,26.49,0,0,1,3.86-.4,33.51,33.51,0,0,1,7.71.64,21.92,21.92,0,0,1,7.25,2.67,17.47,17.47,0,0,1,5.59,5.3,21.61,21.61,0,0,1,3,7.11c1.2,5.07.82,10.3.89,15.44v15.48l0,61.92-.15-.15,118.92-.07,59.46,0h18.58c1.24,0,2.48,0,3.73.08a23.59,23.59,0,0,1,7.31,1.59,24.92,24.92,0,0,1,11.62,9.17,26.3,26.3,0,0,1,3.25,6.75,26.93,26.93,0,0,1,1,7.42c-.1,5-1,10.07-3.62,14.4a17.74,17.74,0,0,1-5.27,5.33,21.64,21.64,0,0,1-6.91,2.91c-4.9,1.2-9.94.88-14.87.94h-14.87l-59.46,0-118.92.07.43-.43.07,119.34,0,29.84c.07,5-.34,10,1,14.72a36.91,36.91,0,0,0,2.5,6.91,44.6,44.6,0,0,0,3.78,6.32,61.38,61.38,0,0,0,22.43,18.89,76.39,76.39,0,0,0,28.56,7.29c4.93.37,9.91.22,14.88.26h14.92l29.84,0,59.67,0h14.92c2.49,0,5-.06,7.49.13a24.69,24.69,0,0,1,13.71,5.82,25.64,25.64,0,0,1,4.92,5.69,24.65,24.65,0,0,1,3.75,14.39,34.11,34.11,0,0,1-1,7.44,21,21,0,0,1-3.14,6.84,17.87,17.87,0,0,1-5.56,5.08,24.19,24.19,0,0,1-7.07,2.56,39.13,39.13,0,0,1-7.47.7h-22.38l-59.67,0-29.84,0H2663c-2.49,0-5,0-7.46,0l-3.73-.07-3.73-.21-1.86-.11-1.86-.18-3.72-.36c-2.46-.36-4.94-.62-7.39-1.11a120.07,120.07,0,0,1-28.51-8.68,128,128,0,0,1-13.21-7,132.93,132.93,0,0,1-12.22-8.58,115.12,115.12,0,0,1-11.18-9.89c-1.8-1.72-3.4-3.64-5.07-5.48s-3.17-3.84-4.57-5.91-2.77-4.14-4.11-6.24-2.46-4.34-3.46-6.62-2-4.57-2.89-6.89l-1.17-3.55c-.41-1.18-.66-2.4-1-3.6a80.53,80.53,0,0,1-2.4-14.72l-.15-1.86-.05-1.87c0-1.24-.08-2.49-.09-3.73v-22.38l0-59.67Zm0,0,.07,119.34,0,59.67v22.38c0,1.24.06,2.48.09,3.72l.05,1.86.15,1.86a80.26,80.26,0,0,0,2.41,14.67c.34,1.19.59,2.41,1,3.58l1.17,3.53c.91,2.31,1.76,4.64,2.88,6.86s2.27,4.41,3.46,6.59,2.6,4.23,4.1,6.21,3,3.94,4.56,5.88,3.27,3.74,5.06,5.46a114.82,114.82,0,0,0,11.16,9.85,132.6,132.6,0,0,0,12.2,8.54,127.63,127.63,0,0,0,13.17,6.93,119.66,119.66,0,0,0,28.43,8.62c2.44.48,4.91.73,7.37,1.09l3.71.36,1.85.17,1.86.1,3.72.2,3.72.07c2.48.06,5,0,7.46,0h14.92l29.84,0,59.67,0h14.92c5-.08,10,.3,14.81-.7a23.59,23.59,0,0,0,6.89-2.5,17.25,17.25,0,0,0,5.36-4.91,20.35,20.35,0,0,0,3-6.64,33.49,33.49,0,0,0,1-7.3,24,24,0,0,0-3.67-14,25,25,0,0,0-4.8-5.54,24,24,0,0,0-13.34-5.64c-2.43-.18-4.94-.1-7.42-.12h-14.92l-59.67,0-29.84,0h-14.92c-5,0-10,.12-14.94-.24a77.26,77.26,0,0,1-28.89-7.35,62.28,62.28,0,0,1-22.79-19.15,45.52,45.52,0,0,1-3.87-6.46,37.83,37.83,0,0,1-2.57-7.09,32.12,32.12,0,0,1-1-7.48c0-2.5,0-5,0-7.47l0-29.84.07-119.34v-.43h.43l118.92.07,59.46,0h14.87c4.95,0,9.94.27,14.72-.9a21,21,0,0,0,6.72-2.82,17.13,17.13,0,0,0,5.1-5.15c2.58-4.18,3.44-9.19,3.54-14.09a26.35,26.35,0,0,0-1-7.25,25.74,25.74,0,0,0-3.16-6.6,24.37,24.37,0,0,0-11.35-9,23.05,23.05,0,0,0-7.15-1.56c-1.22-.09-2.46-.09-3.7-.08h-18.58l-59.46,0-118.92-.07h-.15v-.15l0-61.92v-15.48c-.06-5.15.31-10.36-.87-15.39a21.43,21.43,0,0,0-3-7.06,17.3,17.3,0,0,0-5.53-5.26,21.76,21.76,0,0,0-7.2-2.66,33.37,33.37,0,0,0-7.68-.65,26.34,26.34,0,0,0-3.83.39,26.65,26.65,0,0,0-3.71,1.05,24,24,0,0,0-6.71,3.74,25.92,25.92,0,0,0-5.22,5.65,24.6,24.6,0,0,0-3.19,7c-.15.63-.35,1.24-.46,1.87l-.29,1.91c-.09.64-.08,1.28-.13,1.93s-.05,1.29,0,1.93v23.22Z" transform="translate(-1039.19 -871.21)"/><path class="cls-1" d="M3292.25,1477.23a24.45,24.45,0,0,1-24.13,24.52q-24.88.18-24.87-24.2V1294q0-18.15-17.58-32.45-19.24-15.94-48.89-16H2964.72q-29.13,0-47.8,14.85T2898.25,1294v108.6q0,18,17.45,32.18,19.09,15.83,48.55,15.82h202.93a24.48,24.48,0,0,1,24.52,24.85q-.42,23.16-24,23.15H2965.25q-45.68,0-79.24-26.41-35.78-28.06-35.77-70.43v-107.3q0-42.37,35.77-70.44,33.56-26.41,79.24-26.41h210.62q45.65,0,80.18,26.4,36.19,28.05,36.19,70.4Z" transform="translate(-1039.19 -871.21)"/><path class="cls-1" d="M3292.25,1477.23a24.72,24.72,0,0,1-6.49,16.64,24.19,24.19,0,0,1-16,7.8,36.48,36.48,0,0,1-9.1-.53,23.2,23.2,0,0,1-8.48-3.23,17.65,17.65,0,0,1-6.05-6.71,25.76,25.76,0,0,1-2.55-8.73,73.15,73.15,0,0,1-.31-9.13v-27.41l0-36.55,0-73.11,0-36.55c0-3,.1-6.1-.18-9.12a35,35,0,0,0-2-8.85,43.38,43.38,0,0,0-9.92-15.13,64.39,64.39,0,0,0-6.82-6c-1.17-1-2.44-1.81-3.68-2.7s-2.54-1.67-3.87-2.41-2.67-1.45-4-2.16-2.75-1.31-4.17-1.85a68.85,68.85,0,0,0-8.64-2.88,83.74,83.74,0,0,0-8.93-1.83c-3-.4-6-.75-9.08-.85s-6.08-.13-9.13-.13h-9.14l-73.11,0-73.11,0-36.55,0c-6.09,0-12.19,0-18.27,0a93.29,93.29,0,0,0-18.08,2,80.61,80.61,0,0,0-8.75,2.5,70.12,70.12,0,0,0-8.35,3.61,67.37,67.37,0,0,0-7.76,4.75,74.9,74.9,0,0,0-7,5.8,47.82,47.82,0,0,0-10.76,14.51,35.58,35.58,0,0,0-2.72,8.62,46.14,46.14,0,0,0-.56,9.06l0,73.11v27.41c0,3-.11,6.1.22,9.1a36,36,0,0,0,6.36,16.75,58.34,58.34,0,0,0,12.69,12.9,64.58,64.58,0,0,0,15.79,8.88,68.62,68.62,0,0,0,8.66,2.76c1.46.4,3,.67,4.44,1s3,.54,4.49.72c3,.43,6,.63,9.07.77s6.08.08,9.12.07h18.28l146.21-.06h27.42a83.72,83.72,0,0,1,9.19.24,24.89,24.89,0,0,1,20.4,16.88,25.54,25.54,0,0,1,1.21,9.17,30.83,30.83,0,0,1-1.57,9.11,18.77,18.77,0,0,1-5,7.82,20.18,20.18,0,0,1-8.14,4.44,33.49,33.49,0,0,1-9.15,1.25l-36.56,0-146.21-.06h-18.28a163.43,163.43,0,0,1-18.29-.9,126.55,126.55,0,0,1-35.38-9.14,122.74,122.74,0,0,1-31.07-19.21c-9.3-7.89-17.52-17.27-23.14-28.18a84.42,84.42,0,0,1-9.32-35.2l-.12-4.58v-32l0-73.11q0-2.28.06-4.58c0-1.53.05-3.06.21-4.58.19-3.05.61-6.08,1.1-9.1a80.2,80.2,0,0,1,5.15-17.57,89.63,89.63,0,0,1,20.92-29.8,124.74,124.74,0,0,1,29.94-20.88,122.93,122.93,0,0,1,34.78-11,147.39,147.39,0,0,1,18.21-1.74l4.58-.08h13.71l36.55,0,73.11,0,73.11,0h9.14c3,0,6.09,0,9.14.07a148.08,148.08,0,0,1,18.21,1.57,128,128,0,0,1,34.9,10.57,129.59,129.59,0,0,1,15.92,9c1.26.86,2.55,1.67,3.77,2.58l3.69,2.71,3.55,2.89c1.2.94,2.29,2,3.44,3a100.74,100.74,0,0,1,12.38,13.44,81.78,81.78,0,0,1,9.37,15.67,85.48,85.48,0,0,1,7.45,35.53l0,36.55Zm0,0-.06-146.21,0-36.55a85.31,85.31,0,0,0-7.46-35.45,81.59,81.59,0,0,0-9.36-15.63A100.51,100.51,0,0,0,3263,1230c-1.15-1-2.23-2.07-3.43-3l-3.54-2.88-3.68-2.7c-1.22-.91-2.52-1.71-3.77-2.57a129.37,129.37,0,0,0-15.9-8.95,127.78,127.78,0,0,0-34.84-10.52,147.81,147.81,0,0,0-18.18-1.55c-3-.08-6.09-.07-9.13-.06h-9.14l-73.11,0-73.11,0-36.55,0h-13.71l-4.56.09a146.85,146.85,0,0,0-18.15,1.75,122.41,122.41,0,0,0-34.63,11,124.2,124.2,0,0,0-29.79,20.81,89,89,0,0,0-20.76,29.62,79.61,79.61,0,0,0-5.09,17.44c-.49,3-.9,6-1.09,9-.16,1.51-.16,3-.21,4.55s-.07,3-.06,4.56l0,73.11v32l.12,4.55a83.67,83.67,0,0,0,9.27,34.89c5.57,10.8,13.73,20.1,23,27.93a122,122,0,0,0,30.89,19.06,125.72,125.72,0,0,0,35.16,9.05,162.57,162.57,0,0,0,18.2.88h18.28l146.21-.06h36.55a32.53,32.53,0,0,0,8.9-1.2,19.22,19.22,0,0,0,7.76-4.22,17.82,17.82,0,0,0,4.74-7.44,29.92,29.92,0,0,0,1.53-8.84,24.6,24.6,0,0,0-1.15-8.84,24,24,0,0,0-19.64-16.28,83.44,83.44,0,0,0-9.07-.24H3133.9l-146.21-.06h-18.28c-3,0-6.09,0-9.15-.08s-6.11-.35-9.14-.79c-1.52-.18-3-.48-4.53-.73s-3-.6-4.48-1a69.34,69.34,0,0,1-8.74-2.79,65.27,65.27,0,0,1-16-9,59,59,0,0,1-12.82-13.06,36.67,36.67,0,0,1-6.46-17.06c-.33-3.07-.18-6.12-.21-9.17v-27.41l0-73.11a46.73,46.73,0,0,1,.58-9.15,36.13,36.13,0,0,1,2.77-8.75,48.34,48.34,0,0,1,10.89-14.67,75.45,75.45,0,0,1,7.07-5.84,67.93,67.93,0,0,1,7.82-4.78,70.65,70.65,0,0,1,8.42-3.63,81.14,81.14,0,0,1,8.81-2.51,93.79,93.79,0,0,1,18.18-2c6.1-.07,12.19,0,18.28,0l36.55,0,73.11,0,73.11,0h9.14c3,0,6.1,0,9.14.14s6.08.46,9.11.86a84,84,0,0,1,9,1.85,69.1,69.1,0,0,1,8.68,2.9c1.43.54,2.79,1.23,4.18,1.86s2.73,1.38,4,2.17,2.6,1.6,3.89,2.42,2.51,1.74,3.69,2.71a64.64,64.64,0,0,1,6.84,6.08,43.62,43.62,0,0,1,10,15.22,35.24,35.24,0,0,1,2,8.91c.28,3,.14,6.1.17,9.14l0,36.55,0,73.11,0,36.55v27.41a73.16,73.16,0,0,0,.3,9.12,25.7,25.7,0,0,0,2.54,8.71,17.59,17.59,0,0,0,6,6.7,23.15,23.15,0,0,0,8.47,3.23,36.45,36.45,0,0,0,9.09.54,24.17,24.17,0,0,0,16-7.78A24.71,24.71,0,0,0,3292.25,1477.23Z" transform="translate(-1039.19 -871.21)"/><path class="cls-1" d="M3767.25,1475.25a24.48,24.48,0,0,1-24.85,24.52q-23.16-.42-23.15-24V1293.59q0-18-17.45-32.18-19.1-15.81-48.55-15.82h-214q-28.92,0-47.45,14.73t-18.54,33.27v181.66a24.48,24.48,0,0,1-24.85,24.52q-23.16-.42-23.15-24V1293.59q0-42,35.45-69.82,33.26-26.18,78.55-26.18h214q44.72,0,78.55,26.18,35.45,27.82,35.45,69.82Z" transform="translate(-1039.19 -871.21)"/><path class="cls-1" d="M3767.25,1475.25a26.62,26.62,0,0,1-1,7,25,25,0,0,1-3,6.43,24.65,24.65,0,0,1-10.71,9.06,26.09,26.09,0,0,1-13.94,1.77,26.91,26.91,0,0,1-6.91-1.63,17.83,17.83,0,0,1-6-3.72,18.16,18.16,0,0,1-4.1-5.76,27.63,27.63,0,0,1-1.93-6.83,49.28,49.28,0,0,1-.41-7.1v-7.11l0-28.45-.06-113.82,0-28.45a59.21,59.21,0,0,0-.24-7.09,36.61,36.61,0,0,0-1.51-6.91,40,40,0,0,0-6.84-12.33,56.1,56.1,0,0,0-4.79-5.22c-1.73-1.61-3.51-3.18-5.39-4.62a63.32,63.32,0,0,0-12-7.46,76.92,76.92,0,0,0-27.36-6.94c-4.72-.38-9.46-.27-14.21-.28h-14.23l-28.45,0-56.91,0-56.91,0-28.45,0h-14.23c-4.74,0-9.49-.08-14.21.18a78.6,78.6,0,0,0-27.5,6.19,61.34,61.34,0,0,0-12.22,7.08,63,63,0,0,0-10.36,9.59,41.61,41.61,0,0,0-7.3,12,35.73,35.73,0,0,0-2.36,13.8l0,28.45.06,113.82,0,28.45v7.11c0,1.19,0,2.36,0,3.57,0,.6,0,1.21-.1,1.81l-.27,1.79a24.92,24.92,0,0,1-6.47,12.74,24.16,24.16,0,0,1-5.67,4.47,23.66,23.66,0,0,1-6.72,2.64l-.88.21-.9.13c-.6.08-1.2.18-1.8.23a32.56,32.56,0,0,1-3.61,0,33.55,33.55,0,0,1-7.13-1,21.8,21.8,0,0,1-6.61-2.95,18.12,18.12,0,0,1-1.46-1.09l-1.35-1.24-1.19-1.39c-.4-.46-.69-1-1-1.5-2.61-4.15-3.52-9.07-3.65-13.84l0-113.83,0-56.91c0-4.74,0-9.48,0-14.23l.1-3.57c.07-1.19.19-2.37.28-3.56l.15-1.78.25-1.77c.17-1.18.31-2.36.51-3.54a89.83,89.83,0,0,1,3.63-13.81,86.24,86.24,0,0,1,6-12.95,92.51,92.51,0,0,1,18-22c.89-.79,1.75-1.61,2.66-2.38l2.76-2.27c.91-.77,1.85-1.49,2.81-2.2l2.85-2.14a127.57,127.57,0,0,1,12.06-7.62,124.24,124.24,0,0,1,54.51-15.07c4.75-.26,9.5-.21,14.24-.22h14.23l28.45,0,56.91,0,56.91,0,28.45,0h14.23c4.74,0,9.48,0,14.23.13a126.33,126.33,0,0,1,54.64,14.39,124.68,124.68,0,0,1,12.16,7.41c2,1.3,3.85,2.78,5.77,4.18.93.73,1.84,1.5,2.76,2.25s1.85,1.49,2.71,2.31l2.64,2.39c.88.8,1.69,1.67,2.53,2.5,1.72,1.64,3.24,3.47,4.84,5.22.78.9,1.49,1.85,2.24,2.77l1.11,1.39c.36.47.69,1,1,1.45l2.06,2.91,1.89,3a78.61,78.61,0,0,1,6.27,12.77l.65,1.66.55,1.69c.36,1.13.77,2.25,1.08,3.39l.9,3.45c.33,1.14.49,2.32.74,3.48.53,2.32.76,4.69,1.11,7l.29,3.55.14,1.77,0,1.78.09,3.56v10.67l0,56.91Zm0,0-.06-113.82,0-56.91v-10.67l-.09-3.55,0-1.78-.14-1.77-.3-3.54c-.35-2.34-.58-4.7-1.11-7-.25-1.16-.42-2.33-.74-3.47l-.9-3.44c-.31-1.14-.72-2.25-1.08-3.38l-.55-1.69-.65-1.65a78.34,78.34,0,0,0-6.27-12.72l-1.89-3-2.05-2.9c-.35-.48-.68-1-1-1.44l-1.11-1.39c-.75-.92-1.46-1.86-2.24-2.76-1.59-1.75-3.12-3.57-4.83-5.2-.85-.83-1.65-1.7-2.53-2.49l-2.63-2.39c-.86-.81-1.79-1.55-2.7-2.3s-1.82-1.51-2.75-2.24c-1.92-1.39-3.77-2.87-5.76-4.16a124.39,124.39,0,0,0-12.14-7.38,126,126,0,0,0-54.51-14.29c-4.73-.14-9.48-.12-14.22-.11h-14.23l-28.45,0-56.91,0-56.91,0-28.45,0h-14.23c-4.74,0-9.48,0-14.21.23a123.58,123.58,0,0,0-54.21,15.05,126.83,126.83,0,0,0-12,7.59l-2.84,2.13c-1,.7-1.89,1.42-2.79,2.19l-2.74,2.25c-.9.77-1.76,1.58-2.64,2.37a91.77,91.77,0,0,0-17.82,21.89,85.48,85.48,0,0,0-5.95,12.83,89,89,0,0,0-3.58,13.68c-.2,1.16-.33,2.34-.5,3.5l-.24,1.75-.14,1.77c-.09,1.18-.2,2.35-.27,3.53l-.09,3.54c-.07,4.73,0,9.48,0,14.22l0,56.91.1,113.8c.12,4.66,1,9.41,3.49,13.34s6.61,6.57,11.07,7.76a32.6,32.6,0,0,0,6.92,1,31.64,31.64,0,0,0,3.49,0c.58-.05,1.15-.15,1.73-.22l.86-.12.85-.21a22.72,22.72,0,0,0,6.47-2.53,23.23,23.23,0,0,0,5.46-4.29,24,24,0,0,0,6.24-12.26l.27-1.72c.05-.58.07-1.16.1-1.74.09-1.15,0-2.36,0-3.54v-7.11l0-28.45.06-113.82,0-28.45a36.45,36.45,0,0,1,2.42-14.06,42.29,42.29,0,0,1,7.44-12.18,63.67,63.67,0,0,1,10.49-9.68,62,62,0,0,1,12.36-7.14,79.23,79.23,0,0,1,27.72-6.22c4.76-.26,9.5-.14,14.24-.17h14.23l28.45,0,56.91,0,56.91,0,28.45,0h14.23c4.74,0,9.49-.08,14.23.3a77.28,77.28,0,0,1,27.48,7,63.67,63.67,0,0,1,12.09,7.51c1.89,1.45,3.67,3,5.41,4.64a56.46,56.46,0,0,1,4.81,5.26,40.28,40.28,0,0,1,6.88,12.43,36.93,36.93,0,0,1,1.51,7,59.54,59.54,0,0,1,.23,7.12l0,28.45-.06,113.82,0,28.45v7.11a49.15,49.15,0,0,0,.4,7.09,27.55,27.55,0,0,0,1.92,6.82,18.1,18.1,0,0,0,4.08,5.75,17.77,17.77,0,0,0,6,3.72,26.85,26.85,0,0,0,6.89,1.63,26,26,0,0,0,13.93-1.75,24.63,24.63,0,0,0,10.71-9,25,25,0,0,0,3-6.42A26.62,26.62,0,0,0,3767.25,1475.25Z" transform="translate(-1039.19 -871.21)"/><path class="cls-1" d="M3848.25,1159.92q0,23.78-24,23.77t-24-23.77v-8.1q0-23.77,24-23.77t24,23.77Zm0,315.54q0,23.59-23.16,24a24.48,24.48,0,0,1-24.84-24.51V1222.35a24.48,24.48,0,0,1,24.84-24.51q23.16.41,23.16,24Z" transform="translate(-1039.19 -871.21)"/><path class="cls-1" d="M3848.25,1159.92a33,33,0,0,1-1.52,10.55,18.8,18.8,0,0,1-6,8.71,22.8,22.8,0,0,1-9.82,4.11,41.91,41.91,0,0,1-10.71.44,26.32,26.32,0,0,1-10.35-2.88,17.71,17.71,0,0,1-7.41-7.79,27.45,27.45,0,0,1-2.55-10.5l-.09-2.7v-2.68l0-5.35a33.33,33.33,0,0,1,1.61-10.69,19.2,19.2,0,0,1,6.2-8.85,22.7,22.7,0,0,1,10-4,42,42,0,0,1,10.75-.26,26.23,26.23,0,0,1,10.26,3,17.64,17.64,0,0,1,7.18,7.79,27,27,0,0,1,2.45,10.37l.08,2.68v2.68Zm0,0,0-5.35v-2.68l-.09-2.67a26.93,26.93,0,0,0-2.5-10.31,17.22,17.22,0,0,0-7.21-7.58,25.83,25.83,0,0,0-10.15-2.82,41.4,41.4,0,0,0-10.58.43,22.32,22.32,0,0,0-9.6,4,18.3,18.3,0,0,0-5.84,8.48,32.56,32.56,0,0,0-1.49,10.39l0,5.35v2.68l.07,2.65a26.57,26.57,0,0,0,2.39,10.18,17.11,17.11,0,0,0,7,7.57,25.74,25.74,0,0,0,10.06,3,41.51,41.51,0,0,0,10.61-.25,22.22,22.22,0,0,0,9.79-3.92,18.69,18.69,0,0,0,6-8.62A32.91,32.91,0,0,0,3848.25,1159.92Z" transform="translate(-1039.19 -871.21)"/><path class="cls-1" d="M3848.25,1475.46a34.63,34.63,0,0,1-1.39,10.18,18.8,18.8,0,0,1-5.45,8.61,20.21,20.21,0,0,1-9.21,4.43,32.33,32.33,0,0,1-5.11.72,28.8,28.8,0,0,1-5.16-.06,24.58,24.58,0,0,1-17.28-10.22,24.1,24.1,0,0,1-4.05-9.45c-.69-3.41-.42-6.88-.48-10.31l-.12-82.51-.22-165a25.08,25.08,0,0,1,8.74-18.45,24.66,24.66,0,0,1,9.16-5c.85-.2,1.7-.43,2.56-.6s1.73-.27,2.6-.32,1.75-.09,2.62-.05,1.74.08,2.6.15a26.31,26.31,0,0,1,10,2.76,17.75,17.75,0,0,1,7.44,7.26,26.26,26.26,0,0,1,2.87,10c.34,3.47.19,6.91.21,10.35l-.13,82.51Zm0,0-.25-165-.13-82.51c0-3.44.1-6.89-.24-10.27a25.47,25.47,0,0,0-2.81-9.68,16.91,16.91,0,0,0-7.12-6.91,25.46,25.46,0,0,0-9.73-2.63,26.48,26.48,0,0,0-10.05.82,23.74,23.74,0,0,0-8.8,4.83,24.14,24.14,0,0,0-8.36,17.75l-.28,165-.12,82.51c.05,3.43-.23,6.9.45,10.26a23.9,23.9,0,0,0,4,9.38,24.42,24.42,0,0,0,17.14,10.21,28.68,28.68,0,0,0,5.14.08,32.24,32.24,0,0,0,5.09-.7,20.13,20.13,0,0,0,9.18-4.39,18.75,18.75,0,0,0,5.47-8.57A34.62,34.62,0,0,0,3848.25,1475.46Z" transform="translate(-1039.19 -871.21)"/><path class="cls-1" d="M3930.33,1404.19q0,18.69,18.7,33.55t47.85,14.85h303a24.48,24.48,0,0,1,24.51,24.84q-.42,23.16-24.19,23.16h-303q-45.66,0-79.2-26.18-35.76-27.82-35.75-69.82v-111q0-42,35.75-69.82,33.54-26.18,79.2-26.18h302.72a24.48,24.48,0,0,1,24.52,24.85q-.42,23.16-24.19,23.15H3996.88q-29.16,0-47.85,14.85t-18.7,33.55" transform="translate(-1039.19 -871.21)"/><path class="cls-1" d="M3930.33,1404.19a36,36,0,0,0,3.35,15.07,43.3,43.3,0,0,0,3.92,6.71,56.66,56.66,0,0,0,5,5.95,68.22,68.22,0,0,0,5.76,5.22c1,.84,2.06,1.58,3.08,2.37s2.12,1.5,3.23,2.16a64.7,64.7,0,0,0,14,6.61c9.84,3.35,20.31,4.37,30.66,4.23l31.13,0,124.51-.12,124.51,0h15.56c2.59,0,5.18-.08,7.81.19a24.62,24.62,0,0,1,7.54,2.15c.58.3,1.2.54,1.75.89l1.68,1a27.22,27.22,0,0,1,3.06,2.47,24.77,24.77,0,0,1,4.82,6.19,25.94,25.94,0,0,1,2.62,7.4,30.46,30.46,0,0,1,.23,7.84,30.08,30.08,0,0,1-1.7,7.65,18.24,18.24,0,0,1-4.21,6.63,19.08,19.08,0,0,1-6.61,4.23,27.24,27.24,0,0,1-3.76,1.15,35.74,35.74,0,0,1-3.88.58,76.32,76.32,0,0,1-7.81.22h-23.35l-249,.08h-15.56c-5.19,0-10.37.07-15.57-.07a139,139,0,0,1-15.55-1.23c-2.59-.3-5.14-.81-7.71-1.24s-5.1-1-7.61-1.75-5-1.41-7.5-2.17-4.93-1.67-7.33-2.69-4.79-2-7.16-3.12-4.68-2.3-6.92-3.62-4.48-2.64-6.69-4c-1.09-.71-2.15-1.46-3.23-2.19s-2.13-1.49-3.17-2.28a115.29,115.29,0,0,1-11.93-10.07,88.28,88.28,0,0,1-18.39-25.11c-1.18-2.33-2.11-4.77-3.08-7.19s-1.69-4.94-2.29-7.48a82.44,82.44,0,0,1-2.51-15.42c-.37-5.21-.26-10.41-.27-15.59V1302.4c0-5.18-.09-10.38.27-15.59a82.45,82.45,0,0,1,2.51-15.42c.6-2.54,1.47-5,2.29-7.48s1.9-4.86,3.08-7.19a88.28,88.28,0,0,1,18.39-25.11,115.29,115.29,0,0,1,11.93-10.07c1-.79,2.08-1.56,3.17-2.28s2.14-1.48,3.23-2.19c2.21-1.38,4.4-2.78,6.69-4s4.6-2.44,6.92-3.62,4.73-2.19,7.16-3.12,4.88-1.82,7.33-2.69,5-1.56,7.5-2.17,5.07-1.18,7.61-1.75,5.12-.94,7.71-1.24a139.06,139.06,0,0,1,15.55-1.23c5.21-.14,10.38,0,15.57-.07h15.56l249,.08h23.35c1.3,0,2.59,0,3.9,0l2,.1,1.95.3a24.48,24.48,0,0,1,13.6,7.42,23.77,23.77,0,0,1,4.4,6.49,23.38,23.38,0,0,1,2.14,7.55,31.83,31.83,0,0,1-.18,7.83,25.76,25.76,0,0,1-2.12,7.55,18.23,18.23,0,0,1-4.77,6.23,20.49,20.49,0,0,1-6.91,3.71,34,34,0,0,1-7.72,1.33c-2.62.12-5.2.07-7.8.08h-15.56l-124.51,0-124.51-.12-31.13,0c-10.35-.14-20.82.88-30.66,4.23a64.7,64.7,0,0,0-14,6.61c-1.12.66-2.15,1.44-3.24,2.16s-2.09,1.53-3.08,2.37a68.23,68.23,0,0,0-5.76,5.22,56.68,56.68,0,0,0-5,5.95,43.3,43.3,0,0,0-3.92,6.71,36,36,0,0,0-3.35,15.07,36,36,0,0,1,3.32-15.08,43.34,43.34,0,0,1,3.91-6.72,56.72,56.72,0,0,1,5-6,68.28,68.28,0,0,1,5.75-5.24c1-.84,2.05-1.58,3.08-2.38s2.12-1.5,3.24-2.17a64.82,64.82,0,0,1,14-6.64c9.85-3.38,20.34-4.41,30.7-4.3l31.13,0,124.51-.12,124.51,0h15.56c2.59,0,5.2,0,7.76-.08a33.44,33.44,0,0,0,7.58-1.31,19.89,19.89,0,0,0,6.7-3.6,17.62,17.62,0,0,0,4.6-6,25.14,25.14,0,0,0,2.06-7.38,31.23,31.23,0,0,0,.17-7.68,22.76,22.76,0,0,0-2.09-7.35,23.14,23.14,0,0,0-4.29-6.32,25.63,25.63,0,0,0-6-4.69,25.36,25.36,0,0,0-7.22-2.53l-1.9-.29-1.92-.1c-1.28-.06-2.59,0-3.88,0h-23.35l-249,.08h-15.56c-5.18,0-10.39-.06-15.55.08a138.17,138.17,0,0,0-15.46,1.23c-2.57.3-5.11.8-7.66,1.23s-5.07,1-7.56,1.74-5,1.4-7.45,2.16-4.9,1.66-7.28,2.67-4.75,2-7.1,3.1-4.64,2.28-6.87,3.59-4.45,2.63-6.64,4c-1.08.7-2.14,1.45-3.21,2.18s-2.12,1.48-3.15,2.26a114.38,114.38,0,0,0-11.83,10,87.35,87.35,0,0,0-18.18,24.86c-1.16,2.3-2.08,4.72-3,7.11s-1.67,4.88-2.26,7.39a81.51,81.51,0,0,0-2.47,15.25c-.36,5.14-.25,10.33-.26,15.52v93.38c0,5.19-.1,10.38.26,15.52a81.49,81.49,0,0,0,2.47,15.25c.59,2.51,1.45,4.95,2.26,7.39s1.87,4.81,3,7.11a87.35,87.35,0,0,0,18.18,24.86,114.42,114.42,0,0,0,11.83,10c1,.78,2.07,1.55,3.15,2.26s2.12,1.47,3.21,2.18c2.19,1.37,4.37,2.76,6.64,4s4.56,2.42,6.87,3.59,4.69,2.17,7.1,3.1,4.84,1.81,7.28,2.67,4.93,1.55,7.45,2.16,5,1.18,7.56,1.74,5.09.94,7.66,1.23a138.17,138.17,0,0,0,15.46,1.23c5.17.14,10.37,0,15.55.08h15.56l249,.08h23.35a75.74,75.74,0,0,0,7.74-.21,35.06,35.06,0,0,0,3.81-.57,26.61,26.61,0,0,0,3.67-1.12,18.44,18.44,0,0,0,6.4-4.08,17.61,17.61,0,0,0,4.07-6.41,29.45,29.45,0,0,0,1.67-7.49,29.82,29.82,0,0,0-.22-7.67,25.32,25.32,0,0,0-2.55-7.21,24.15,24.15,0,0,0-4.7-6,26.68,26.68,0,0,0-3-2.42l-1.64-1c-.54-.34-1.14-.58-1.71-.87a24,24,0,0,0-7.35-2.11c-2.54-.26-5.15-.17-7.74-.19h-15.56l-124.51,0-124.51-.12-31.13,0c-10.36.12-20.85-.92-30.7-4.3a64.81,64.81,0,0,1-14-6.64c-1.12-.66-2.15-1.45-3.24-2.16s-2.09-1.54-3.08-2.38a68.26,68.26,0,0,1-5.75-5.24,56.68,56.68,0,0,1-5-6,43.36,43.36,0,0,1-3.91-6.72A36,36,0,0,1,3930.33,1404.19Z" transform="translate(-1039.19 -871.21)"/><path class="cls-1" d="M4799.25,1477.23a24.45,24.45,0,0,1-24.13,24.52q-24.88.18-24.87-24.2V1294q0-18.15-17.58-32.45-19.24-15.94-48.89-16H4471.72q-29.13,0-47.8,14.85T4405.25,1294v108.6q0,18,17.45,32.18,19.09,15.83,48.55,15.82h202.93a24.48,24.48,0,0,1,24.52,24.85q-.42,23.16-24,23.15H4472.25q-45.68,0-79.24-26.41-35.78-28.06-35.77-70.43v-107.3q0-42.37,35.77-70.44,33.56-26.41,79.24-26.41h210.62q45.65,0,80.18,26.4,36.19,28.05,36.19,70.4Z" transform="translate(-1039.19 -871.21)"/><path class="cls-1" d="M4799.25,1477.23a24.72,24.72,0,0,1-6.49,16.64,24.19,24.19,0,0,1-16,7.8,36.48,36.48,0,0,1-9.1-.53,23.19,23.19,0,0,1-8.48-3.23,17.65,17.65,0,0,1-6.05-6.71,25.76,25.76,0,0,1-2.55-8.73,73.24,73.24,0,0,1-.31-9.13v-27.41l0-36.55,0-73.11,0-36.55c0-3,.1-6.1-.18-9.12a35,35,0,0,0-2-8.85,43.38,43.38,0,0,0-9.92-15.13,64.4,64.4,0,0,0-6.82-6c-1.17-1-2.44-1.81-3.68-2.7s-2.54-1.67-3.87-2.41-2.67-1.45-4-2.16-2.75-1.31-4.17-1.85a68.86,68.86,0,0,0-8.64-2.88,83.72,83.72,0,0,0-8.93-1.83c-3-.4-6-.75-9.08-.85s-6.08-.13-9.13-.13h-9.14l-73.11,0-73.11,0-36.55,0c-6.09,0-12.19,0-18.27,0a93.29,93.29,0,0,0-18.08,2,80.62,80.62,0,0,0-8.75,2.5,70.1,70.1,0,0,0-8.35,3.61,67.39,67.39,0,0,0-7.76,4.75,75,75,0,0,0-7,5.8,47.82,47.82,0,0,0-10.76,14.51,35.6,35.6,0,0,0-2.72,8.62,46.22,46.22,0,0,0-.56,9.06l0,73.11v27.41c0,3-.11,6.1.22,9.1a36,36,0,0,0,6.36,16.75,58.32,58.32,0,0,0,12.69,12.9,64.56,64.56,0,0,0,15.79,8.88,68.58,68.58,0,0,0,8.66,2.76c1.46.4,3,.67,4.44,1s3,.54,4.49.72c3,.43,6,.63,9.07.77s6.08.08,9.12.07h18.28l146.21-.06h27.42a83.72,83.72,0,0,1,9.19.24,24.89,24.89,0,0,1,20.4,16.88,25.55,25.55,0,0,1,1.21,9.17,30.83,30.83,0,0,1-1.57,9.11,18.77,18.77,0,0,1-5,7.82,20.18,20.18,0,0,1-8.14,4.44,33.49,33.49,0,0,1-9.15,1.25l-36.56,0-146.21-.06h-18.28a163.43,163.43,0,0,1-18.29-.9,126.54,126.54,0,0,1-35.38-9.14,122.74,122.74,0,0,1-31.07-19.21c-9.3-7.89-17.52-17.27-23.14-28.18a84.41,84.41,0,0,1-9.32-35.2l-.12-4.58v-32l0-73.11q0-2.28.06-4.58c0-1.53.05-3.06.21-4.58.19-3.05.61-6.08,1.1-9.1a80.22,80.22,0,0,1,5.15-17.57,89.64,89.64,0,0,1,20.92-29.8,124.74,124.74,0,0,1,29.94-20.88,122.93,122.93,0,0,1,34.78-11,147.38,147.38,0,0,1,18.21-1.74l4.58-.08h13.71l36.55,0,73.11,0,73.11,0h9.14c3,0,6.09,0,9.14.07a148.09,148.09,0,0,1,18.21,1.57,128.05,128.05,0,0,1,34.9,10.57,129.55,129.55,0,0,1,15.92,9c1.26.86,2.55,1.67,3.77,2.58l3.69,2.71,3.55,2.89c1.2.94,2.29,2,3.44,3a100.71,100.71,0,0,1,12.38,13.44,81.78,81.78,0,0,1,9.37,15.67,85.49,85.49,0,0,1,7.45,35.53l0,36.55Zm0,0-.06-146.21,0-36.55a85.31,85.31,0,0,0-7.46-35.45,81.55,81.55,0,0,0-9.36-15.63A100.51,100.51,0,0,0,4770,1230c-1.15-1-2.23-2.07-3.43-3l-3.54-2.88-3.68-2.7c-1.22-.91-2.52-1.71-3.77-2.57a129.32,129.32,0,0,0-15.9-8.95,127.78,127.78,0,0,0-34.83-10.52,147.81,147.81,0,0,0-18.18-1.55c-3-.08-6.09-.07-9.13-.06h-9.14l-73.11,0-73.11,0-36.55,0h-13.71l-4.56.09a146.85,146.85,0,0,0-18.15,1.75,122.41,122.41,0,0,0-34.63,11,124.21,124.21,0,0,0-29.79,20.81,89,89,0,0,0-20.76,29.62,79.6,79.6,0,0,0-5.09,17.44c-.49,3-.9,6-1.09,9-.16,1.51-.16,3-.21,4.55s-.07,3-.06,4.56l0,73.11v32l.12,4.55a83.67,83.67,0,0,0,9.27,34.89c5.57,10.8,13.73,20.1,23,27.93a122,122,0,0,0,30.89,19.06,125.71,125.71,0,0,0,35.16,9.05,162.58,162.58,0,0,0,18.2.88h18.28l146.21-.06h36.55a32.54,32.54,0,0,0,8.9-1.2,19.23,19.23,0,0,0,7.76-4.22,17.82,17.82,0,0,0,4.74-7.44,29.93,29.93,0,0,0,1.53-8.84,24.61,24.61,0,0,0-1.15-8.84,24,24,0,0,0-19.64-16.28,83.45,83.45,0,0,0-9.07-.24H4640.9l-146.21-.06h-18.28c-3,0-6.09,0-9.15-.08s-6.11-.35-9.14-.79c-1.52-.18-3-.48-4.53-.73s-3-.6-4.48-1a69.34,69.34,0,0,1-8.74-2.79,65.28,65.28,0,0,1-16-9,59,59,0,0,1-12.82-13.06,36.67,36.67,0,0,1-6.46-17.06c-.33-3.07-.18-6.12-.21-9.17v-27.41l0-73.11a46.71,46.71,0,0,1,.58-9.15,36.13,36.13,0,0,1,2.76-8.75,48.35,48.35,0,0,1,10.89-14.67,75.45,75.45,0,0,1,7.07-5.84,67.89,67.89,0,0,1,7.82-4.78,70.63,70.63,0,0,1,8.42-3.63,81.15,81.15,0,0,1,8.81-2.51,93.79,93.79,0,0,1,18.18-2c6.1-.07,12.19,0,18.28,0l36.55,0,73.11,0,73.11,0h9.14c3,0,6.1,0,9.14.14s6.08.46,9.11.86a83.94,83.94,0,0,1,9,1.85,69.09,69.09,0,0,1,8.68,2.9c1.43.54,2.79,1.23,4.18,1.86s2.73,1.38,4,2.17,2.6,1.6,3.89,2.42,2.51,1.74,3.69,2.71a64.64,64.64,0,0,1,6.84,6.08,43.63,43.63,0,0,1,10,15.22,35.24,35.24,0,0,1,2,8.91c.28,3,.14,6.1.17,9.14l0,36.55,0,73.11,0,36.55v27.41a73.07,73.07,0,0,0,.3,9.12,25.7,25.7,0,0,0,2.54,8.71,17.59,17.59,0,0,0,6,6.7,23.15,23.15,0,0,0,8.47,3.23,36.45,36.45,0,0,0,9.09.54,24.17,24.17,0,0,0,16-7.78A24.71,24.71,0,0,0,4799.25,1477.23Z" transform="translate(-1039.19 -871.21)"/></g></svg>